<?xml version="1.0" standalone="no"?>
<!DOCTYPE svg PUBLIC "-//W3C//DTD SVG 20010904//EN"
 "http://www.w3.org/TR/2001/REC-SVG-20010904/DTD/svg10.dtd">
<svg version="1.0" xmlns="http://www.w3.org/2000/svg"
 width="512.000000pt" height="512.000000pt" viewBox="0 0 512.000000 512.000000"
 preserveAspectRatio="xMidYMid meet">

<g transform="translate(0.000000,512.000000) scale(0.100000,-0.100000)"
fill="#0FD7CA" stroke="none">
<path d="M1932 5100 c-106 -28 -187 -75 -267 -155 -81 -81 -127 -161 -155
-271 -19 -75 -20 -116 -20 -1474 0 -1358 1 -1399 20 -1474 28 -110 74 -190
155 -271 81 -81 161 -127 271 -155 75 -19 115 -20 1258 -20 1297 0 1250 -2
1382 61 94 45 218 168 262 259 66 135 62 42 62 1600 0 1558 4 1465 -62 1600
-44 91 -168 214 -262 259 -132 63 -84 61 -1386 60 -1134 0 -1188 -1 -1258 -19z"/>
<path d="M650 4034 c-162 -43 -309 -165 -379 -315 -22 -46 -44 -111 -50 -143
-8 -41 -11 -524 -11 -1556 0 -1458 1 -1499 20 -1574 28 -110 74 -190 155 -271
81 -81 161 -127 271 -155 75 -19 116 -20 1474 -20 1358 0 1399 1 1474 20 110
28 190 74 271 155 81 81 127 161 155 271 17 65 20 111 20 296 l0 218 -1022 0
c-668 0 -1046 4 -1088 11 -357 58 -636 310 -743 674 -21 69 -21 90 -24 1238
l-4 1167 -232 -1 c-169 0 -247 -4 -287 -15z"/>
</g>
</svg>
